<svg
  width="24"
  height="24"
  viewBox="0 0 24 24"
  fill="none"
  xmlns="http://www.w3.org/2000/svg"
>
<g clip-path="url(#clip0_951_679)">
<path
      d="M8 3C8 1.89543 8.89543 1 10 1H21C22.1046 1 23 1.89543 23 3V23H8V3Z"
      stroke="black"
      stroke-width="2"
    />
<path
      d="M1 14C1 13.4477 1.44772 13 2 13H8V23H1V14Z"
      stroke="black"
      stroke-width="2"
    />
<rect x="12" y="4" width="2" height="2" fill="black" />
<rect x="17" y="4" width="2" height="2" fill="black" />
<rect x="12" y="8" width="2" height="2" fill="black" />
<rect x="17" y="8" width="2" height="2" fill="black" />
<rect x="12" y="12" width="2" height="2" fill="black" />
<rect x="17" y="12" width="2" height="2" fill="black" />
<path
      d="M13 18C13 17.4477 13.4477 17 14 17H17C17.5523 17 18 17.4477 18 18V24H13V18Z"
      stroke="black"
      stroke-width="2"
    />
</g>
<defs>
<clipPath id="clip0_951_679">
<rect width="24" height="24" fill="white" />
</clipPath>
</defs>
</svg>
