<svg
  width="360"
  height="282"
  viewBox="0 0 360 282"
  fill="none"
  xmlns="http://www.w3.org/2000/svg"
>
<g clip-path="url(#clip0_1869_182)">
<rect width="360" height="282" fill="white" />
<rect x="0.5" y="0.5" width="388" height="308" rx="19.5" stroke="#E2E0D6" />
<path
      d="M38.8808 36.032V37.166H35.5488V46H34.2468V37.166H30.9148V36.032H38.8808ZM41.4327 46.182C39.3607 46.182 37.9607 44.656 37.9607 42.388C37.9607 40.064 39.4027 38.594 41.4747 38.594C43.4907 38.594 44.9187 40.036 44.9187 42.332C44.9187 44.6 43.4627 46.182 41.4327 46.182ZM41.4327 45.104C42.8327 45.104 43.6307 43.97 43.6307 42.332C43.6307 40.694 42.8327 39.672 41.4327 39.672C40.0607 39.672 39.2487 40.75 39.2487 42.388C39.2487 44.026 40.0747 45.104 41.4327 45.104ZM48.2668 39.714V44.222C48.2668 44.754 48.4348 44.922 48.9668 44.922H49.9048V46H48.5888C47.4688 46 46.9788 45.51 46.9788 44.39V39.714L45.9008 39.77V38.776L46.9788 38.818V36.564H48.2668V38.832L49.9188 38.776V39.77L48.2668 39.714ZM57.8347 45.048H58.0447V46H57.3587C56.5887 46 56.1687 45.65 56.1127 44.936C55.6507 45.636 54.7267 46.182 53.4947 46.182C52.0247 46.182 51.0727 45.412 51.0727 44.082C51.0727 42.892 51.7867 42.052 53.5367 41.828L55.3847 41.59C55.7347 41.548 55.9027 41.38 55.9027 41.044V40.736C55.9027 39.98 55.3987 39.616 54.2787 39.616C53.2427 39.616 52.7247 39.938 52.6407 40.904H51.3667C51.4927 39.308 52.5147 38.552 54.3767 38.552C56.1687 38.552 57.2047 39.28 57.2047 40.862V44.418C57.2047 44.894 57.3587 45.048 57.8347 45.048ZM53.7327 45.188C54.8947 45.188 55.9027 44.39 55.9027 43.466V42.458L53.7467 42.78C52.7387 42.934 52.3467 43.382 52.3467 44.026C52.3467 44.768 52.8927 45.188 53.7327 45.188ZM59.4491 46V36.032H60.7371V46H59.4491ZM73.3299 36.032H74.7159L71.1459 46H69.6479L66.0499 36.032H67.4919L69.9279 43.116L70.4179 44.628L70.9079 43.116L73.3299 36.032ZM78.3195 46.182C76.2475 46.182 74.8475 44.656 74.8475 42.388C74.8475 40.064 76.2895 38.594 78.3615 38.594C80.3775 38.594 81.8055 40.036 81.8055 42.332C81.8055 44.6 80.3495 46.182 78.3195 46.182ZM78.3195 45.104C79.7195 45.104 80.5175 43.97 80.5175 42.332C80.5175 40.694 79.7195 39.672 78.3195 39.672C76.9475 39.672 76.1355 40.75 76.1355 42.388C76.1355 44.026 76.9615 45.104 78.3195 45.104ZM83.621 46V36.032H84.909V46H83.621ZM91.9363 38.776H93.2243V46H92.0203V44.978C91.5303 45.748 90.6623 46.182 89.5983 46.182C88.0863 46.182 87.1483 45.314 87.1483 43.788V38.776H88.4363V43.536C88.4363 44.53 88.8983 45.062 89.8783 45.062C90.8723 45.062 91.9363 44.516 91.9363 42.794V38.776ZM103.133 38.594C104.547 38.594 105.345 39.364 105.345 41.044V46H104.057V41.058C104.057 40.218 103.609 39.714 102.811 39.714C101.971 39.714 101.047 40.218 101.047 42.08V46H99.7588V41.058C99.7588 40.218 99.3108 39.714 98.5128 39.714C97.6728 39.714 96.7488 40.288 96.7488 42.15V46H95.4608V38.776H96.6928L96.6368 39.84C97.1128 39.042 97.8268 38.594 98.8348 38.594C99.8148 38.594 100.515 39.028 100.837 39.854C101.313 39.014 102.083 38.594 103.133 38.594ZM113.874 42.22V42.696H108.456C108.498 44.32 109.338 45.118 110.64 45.118C111.704 45.118 112.32 44.586 112.642 43.676L113.818 43.816C113.37 45.314 112.18 46.168 110.598 46.168C108.442 46.168 107.168 44.586 107.168 42.36C107.168 40.148 108.414 38.608 110.57 38.608C112.6 38.608 113.874 39.966 113.874 42.22ZM110.584 39.658C109.436 39.658 108.596 40.358 108.47 41.772H112.67C112.502 40.4 111.76 39.658 110.584 39.658Z"
      fill="black"
    />
<path
      d="M258.162 46L257.112 43.074H252.884L251.806 46H250.42L254.284 36.032H255.754L259.604 46H258.162ZM253.304 41.94H256.706L255.348 38.16L255.026 37.124L254.69 38.16L253.304 41.94ZM265.929 38.776H267.217V46H266.013V44.978C265.523 45.748 264.655 46.182 263.591 46.182C262.079 46.182 261.141 45.314 261.141 43.788V38.776H262.429V43.536C262.429 44.53 262.891 45.062 263.871 45.062C264.865 45.062 265.929 44.516 265.929 42.794V38.776ZM271.26 39.714V44.222C271.26 44.754 271.428 44.922 271.96 44.922H272.898V46H271.582C270.462 46 269.972 45.51 269.972 44.39V39.714L268.894 39.77V38.776L269.972 38.818V36.564H271.26V38.832L272.912 38.776V39.77L271.26 39.714ZM278.084 38.594C279.596 38.594 280.534 39.462 280.534 40.988V46H279.246V41.24C279.246 40.246 278.784 39.714 277.804 39.714C276.81 39.714 275.746 40.26 275.746 41.982V46H274.458V36.032H275.746V39.686C276.25 38.986 277.076 38.594 278.084 38.594ZM294.034 42.822L294.398 46H293.082L292.788 43.34C292.662 42.164 292.158 41.702 290.996 41.702H287.916V46H286.614V36.032H291.234C293.138 36.032 294.286 37.068 294.286 38.664C294.286 39.952 293.558 40.862 292.508 41.156C293.376 41.324 293.936 41.898 294.034 42.822ZM290.786 40.568C292.144 40.568 292.956 39.924 292.956 38.79C292.956 37.74 292.27 37.166 291.01 37.166H287.916V40.568H290.786ZM302.935 45.048H303.145V46H302.459C301.689 46 301.269 45.65 301.213 44.936C300.751 45.636 299.827 46.182 298.595 46.182C297.125 46.182 296.173 45.412 296.173 44.082C296.173 42.892 296.887 42.052 298.637 41.828L300.485 41.59C300.835 41.548 301.003 41.38 301.003 41.044V40.736C301.003 39.98 300.499 39.616 299.379 39.616C298.343 39.616 297.825 39.938 297.741 40.904H296.467C296.593 39.308 297.615 38.552 299.477 38.552C301.269 38.552 302.305 39.28 302.305 40.862V44.418C302.305 44.894 302.459 45.048 302.935 45.048ZM298.833 45.188C299.995 45.188 301.003 44.39 301.003 43.466V42.458L298.847 42.78C297.839 42.934 297.447 43.382 297.447 44.026C297.447 44.768 297.993 45.188 298.833 45.188ZM306.356 39.714V44.222C306.356 44.754 306.524 44.922 307.056 44.922H307.994V46H306.678C305.558 46 305.068 45.51 305.068 44.39V39.714L303.99 39.77V38.776L305.068 38.818V36.564H306.356V38.832L308.008 38.776V39.77L306.356 39.714ZM315.84 42.22V42.696H310.422C310.464 44.32 311.304 45.118 312.606 45.118C313.67 45.118 314.286 44.586 314.608 43.676L315.784 43.816C315.336 45.314 314.146 46.168 312.564 46.168C310.408 46.168 309.134 44.586 309.134 42.36C309.134 40.148 310.38 38.608 312.536 38.608C314.566 38.608 315.84 39.966 315.84 42.22ZM312.55 39.658C311.402 39.658 310.562 40.358 310.436 41.772H314.636C314.468 40.4 313.726 39.658 312.55 39.658Z"
      fill="black"
    />
<path
      d="M258.61 125.822L258.974 129H257.658L257.364 126.34C257.238 125.164 256.734 124.702 255.572 124.702H252.492V129H251.19V119.032H255.81C257.714 119.032 258.862 120.068 258.862 121.664C258.862 122.952 258.134 123.862 257.084 124.156C257.952 124.324 258.512 124.898 258.61 125.822ZM255.362 123.568C256.72 123.568 257.532 122.924 257.532 121.79C257.532 120.74 256.846 120.166 255.586 120.166H252.492V123.568H255.362ZM267.359 125.22V125.696H261.941C261.983 127.32 262.823 128.118 264.125 128.118C265.189 128.118 265.805 127.586 266.127 126.676L267.303 126.816C266.855 128.314 265.665 129.168 264.083 129.168C261.927 129.168 260.653 127.586 260.653 125.36C260.653 123.148 261.899 121.608 264.055 121.608C266.085 121.608 267.359 122.966 267.359 125.22ZM264.069 122.658C262.921 122.658 262.081 123.358 261.955 124.772H266.155C265.987 123.4 265.245 122.658 264.069 122.658ZM276.915 121.776H278.245L275.893 129H274.605L273.583 124.688L273.219 122.868L272.827 124.688L271.735 129H270.419L268.137 121.776H269.537L270.671 125.948L271.105 127.67L271.483 125.948L272.519 121.776H273.919L274.955 125.948L275.305 127.67L275.725 125.948L276.915 121.776ZM285.886 128.048H286.096V129H285.41C284.64 129 284.22 128.65 284.164 127.936C283.702 128.636 282.778 129.182 281.546 129.182C280.076 129.182 279.124 128.412 279.124 127.082C279.124 125.892 279.838 125.052 281.588 124.828L283.436 124.59C283.786 124.548 283.954 124.38 283.954 124.044V123.736C283.954 122.98 283.45 122.616 282.33 122.616C281.294 122.616 280.776 122.938 280.692 123.904H279.418C279.544 122.308 280.566 121.552 282.428 121.552C284.22 121.552 285.256 122.28 285.256 123.862V127.418C285.256 127.894 285.41 128.048 285.886 128.048ZM281.784 128.188C282.946 128.188 283.954 127.39 283.954 126.466V125.458L281.798 125.78C280.79 125.934 280.398 126.382 280.398 127.026C280.398 127.768 280.944 128.188 281.784 128.188ZM291.057 121.58C291.155 121.58 291.239 121.58 291.323 121.594V122.854C291.169 122.84 291.029 122.84 290.861 122.84C289.909 122.84 288.845 123.582 288.789 125.052V129H287.501V121.776H288.705V123.232C289.167 122.224 289.923 121.58 291.057 121.58ZM297.541 119.032H298.829V129H297.709V127.852C297.275 128.608 296.435 129.154 295.385 129.154C293.425 129.154 292.235 127.516 292.235 125.276C292.235 123.092 293.523 121.622 295.357 121.622C296.295 121.622 297.079 122.014 297.541 122.644V119.032ZM295.511 128.048C296.715 128.048 297.611 127.012 297.611 125.304C297.611 123.596 296.743 122.728 295.539 122.728C294.293 122.728 293.523 123.624 293.523 125.276C293.523 126.956 294.265 128.048 295.511 128.048ZM309.009 119.032C310.941 119.032 312.215 119.984 312.215 121.888C312.215 123.862 310.913 124.842 308.981 124.842H306.209V129H304.907V119.032H309.009ZM309.009 123.708C310.199 123.708 310.913 123.078 310.913 121.902C310.913 120.712 310.171 120.166 308.939 120.166H306.209V123.708H309.009ZM316.858 129.182C314.786 129.182 313.386 127.656 313.386 125.388C313.386 123.064 314.828 121.594 316.9 121.594C318.916 121.594 320.344 123.036 320.344 125.332C320.344 127.6 318.888 129.182 316.858 129.182ZM316.858 128.104C318.258 128.104 319.056 126.97 319.056 125.332C319.056 123.694 318.258 122.672 316.858 122.672C315.486 122.672 314.674 123.75 314.674 125.388C314.674 127.026 315.5 128.104 316.858 128.104ZM322.159 120.418V119.032H323.447V120.418H322.159ZM322.159 129V121.776H323.447V129H322.159ZM329.312 121.594C330.824 121.594 331.762 122.462 331.762 123.988V129H330.474V124.24C330.474 123.246 330.012 122.714 329.032 122.714C328.038 122.714 326.974 123.26 326.974 124.982V129H325.686V121.776H326.89V122.798C327.38 122.028 328.248 121.594 329.312 121.594ZM335.805 122.714V127.222C335.805 127.754 335.973 127.922 336.505 127.922H337.443V129H336.127C335.007 129 334.517 128.51 334.517 127.39V122.714L333.439 122.77V121.776L334.517 121.818V119.564H335.805V121.832L337.457 121.776V122.77L335.805 122.714ZM341.453 129.182C339.633 129.182 338.611 128.37 338.443 126.718H339.675C339.801 127.726 340.403 128.146 341.509 128.146C342.685 128.146 343.231 127.698 343.231 127.012C343.231 126.438 342.853 126.116 342.097 125.962L340.641 125.654C339.241 125.36 338.639 124.716 338.639 123.694C338.639 122.434 339.549 121.608 341.327 121.608C342.965 121.608 344.085 122.322 344.267 123.876H342.993C342.853 123.036 342.307 122.63 341.285 122.63C340.375 122.63 339.829 122.938 339.829 123.582C339.829 124.044 340.095 124.366 340.949 124.548L342.349 124.856C343.847 125.192 344.463 125.85 344.463 126.9C344.463 128.314 343.357 129.182 341.453 129.182ZM351.217 127.866H357.097V129H349.915V119.032H356.971V120.166H351.217V123.302H356.523V124.436H351.217V127.866Z"
      fill="black"
    />
<path
      d="M37.456 119.032V120.166H34.124V129H32.822V120.166H29.49V119.032H37.456ZM40.0079 129.182C37.9359 129.182 36.5359 127.656 36.5359 125.388C36.5359 123.064 37.9779 121.594 40.0499 121.594C42.0659 121.594 43.4939 123.036 43.4939 125.332C43.4939 127.6 42.0379 129.182 40.0079 129.182ZM40.0079 128.104C41.4079 128.104 42.2059 126.97 42.2059 125.332C42.2059 123.694 41.4079 122.672 40.0079 122.672C38.6359 122.672 37.8239 123.75 37.8239 125.388C37.8239 127.026 38.6499 128.104 40.0079 128.104ZM46.842 122.714V127.222C46.842 127.754 47.01 127.922 47.542 127.922H48.48V129H47.164C46.044 129 45.554 128.51 45.554 127.39V122.714L44.476 122.77V121.776L45.554 121.818V119.564H46.842V121.832L48.494 121.776V122.77L46.842 122.714ZM56.4099 128.048H56.6199V129H55.9339C55.1639 129 54.7439 128.65 54.6879 127.936C54.2259 128.636 53.3019 129.182 52.0699 129.182C50.5999 129.182 49.6479 128.412 49.6479 127.082C49.6479 125.892 50.3619 125.052 52.1119 124.828L53.9599 124.59C54.3099 124.548 54.4779 124.38 54.4779 124.044V123.736C54.4779 122.98 53.9739 122.616 52.8539 122.616C51.8179 122.616 51.2999 122.938 51.2159 123.904H49.9419C50.0679 122.308 51.0899 121.552 52.9519 121.552C54.7439 121.552 55.7799 122.28 55.7799 123.862V127.418C55.7799 127.894 55.9339 128.048 56.4099 128.048ZM52.3079 128.188C53.4699 128.188 54.4779 127.39 54.4779 126.466V125.458L52.3219 125.78C51.3139 125.934 50.9219 126.382 50.9219 127.026C50.9219 127.768 51.4679 128.188 52.3079 128.188ZM58.0243 129V119.032H59.3123V129H58.0243ZM72.6611 119.032V120.166H69.3291V129H68.0271V120.166H64.6951V119.032H72.6611ZM76.2776 121.58C76.3756 121.58 76.4596 121.58 76.5436 121.594V122.854C76.3896 122.84 76.2496 122.84 76.0816 122.84C75.1296 122.84 74.0656 123.582 74.0096 125.052V129H72.7216V121.776H73.9256V123.232C74.3876 122.224 75.1436 121.58 76.2776 121.58ZM84.1775 128.048H84.3875V129H83.7015C82.9315 129 82.5115 128.65 82.4555 127.936C81.9935 128.636 81.0695 129.182 79.8375 129.182C78.3675 129.182 77.4155 128.412 77.4155 127.082C77.4155 125.892 78.1295 125.052 79.8795 124.828L81.7275 124.59C82.0775 124.548 82.2455 124.38 82.2455 124.044V123.736C82.2455 122.98 81.7415 122.616 80.6215 122.616C79.5855 122.616 79.0675 122.938 78.9835 123.904H77.7095C77.8355 122.308 78.8575 121.552 80.7195 121.552C82.5115 121.552 83.5475 122.28 83.5475 123.862V127.418C83.5475 127.894 83.7015 128.048 84.1775 128.048ZM80.0755 128.188C81.2375 128.188 82.2455 127.39 82.2455 126.466V125.458L80.0895 125.78C79.0815 125.934 78.6895 126.382 78.6895 127.026C78.6895 127.768 79.2355 128.188 80.0755 128.188ZM89.4179 121.594C90.9299 121.594 91.8679 122.462 91.8679 123.988V129H90.5799V124.24C90.5799 123.246 90.1179 122.714 89.1379 122.714C88.1439 122.714 87.0799 123.26 87.0799 124.982V129H85.7919V121.776H86.9959V122.798C87.4859 122.028 88.3539 121.594 89.4179 121.594ZM96.5544 129.182C94.7344 129.182 93.7124 128.37 93.5444 126.718H94.7764C94.9024 127.726 95.5044 128.146 96.6104 128.146C97.7864 128.146 98.3324 127.698 98.3324 127.012C98.3324 126.438 97.9544 126.116 97.1984 125.962L95.7424 125.654C94.3424 125.36 93.7404 124.716 93.7404 123.694C93.7404 122.434 94.6504 121.608 96.4284 121.608C98.0664 121.608 99.1864 122.322 99.3684 123.876H98.0944C97.9544 123.036 97.4084 122.63 96.3864 122.63C95.4764 122.63 94.9304 122.938 94.9304 123.582C94.9304 124.044 95.1964 124.366 96.0504 124.548L97.4504 124.856C98.9484 125.192 99.5644 125.85 99.5644 126.9C99.5644 128.314 98.4584 129.182 96.5544 129.182ZM107.543 128.048H107.753V129H107.067C106.297 129 105.877 128.65 105.821 127.936C105.359 128.636 104.435 129.182 103.203 129.182C101.733 129.182 100.781 128.412 100.781 127.082C100.781 125.892 101.495 125.052 103.245 124.828L105.093 124.59C105.443 124.548 105.611 124.38 105.611 124.044V123.736C105.611 122.98 105.107 122.616 103.987 122.616C102.951 122.616 102.433 122.938 102.349 123.904H101.075C101.201 122.308 102.223 121.552 104.085 121.552C105.877 121.552 106.913 122.28 106.913 123.862V127.418C106.913 127.894 107.067 128.048 107.543 128.048ZM103.441 128.188C104.603 128.188 105.611 127.39 105.611 126.466V125.458L103.455 125.78C102.447 125.934 102.055 126.382 102.055 127.026C102.055 127.768 102.601 128.188 103.441 128.188ZM112.083 129.182C110.067 129.182 108.737 127.88 108.737 125.444C108.737 123.008 110.067 121.594 112.153 121.594C113.819 121.594 114.953 122.476 115.205 124.142H113.987C113.791 123.162 113.175 122.672 112.167 122.672C110.711 122.672 110.025 123.68 110.025 125.388C110.025 127.096 110.781 128.104 112.153 128.104C113.217 128.104 113.805 127.502 114.001 126.48H115.205C114.953 128.174 113.903 129.182 112.083 129.182ZM118.483 122.714V127.222C118.483 127.754 118.651 127.922 119.183 127.922H120.121V129H118.805C117.685 129 117.195 128.51 117.195 127.39V122.714L116.117 122.77V121.776L117.195 121.818V119.564H118.483V121.832L120.135 121.776V122.77L118.483 122.714ZM121.681 120.418V119.032H122.969V120.418H121.681ZM121.681 129V121.776H122.969V129H121.681ZM128.26 129.182C126.188 129.182 124.788 127.656 124.788 125.388C124.788 123.064 126.23 121.594 128.302 121.594C130.318 121.594 131.746 123.036 131.746 125.332C131.746 127.6 130.29 129.182 128.26 129.182ZM128.26 128.104C129.66 128.104 130.458 126.97 130.458 125.332C130.458 123.694 129.66 122.672 128.26 122.672C126.888 122.672 126.076 123.75 126.076 125.388C126.076 127.026 126.902 128.104 128.26 128.104ZM137.187 121.594C138.699 121.594 139.637 122.462 139.637 123.988V129H138.349V124.24C138.349 123.246 137.887 122.714 136.907 122.714C135.913 122.714 134.849 123.26 134.849 124.982V129H133.561V121.776H134.765V122.798C135.255 122.028 136.123 121.594 137.187 121.594ZM144.324 129.182C142.504 129.182 141.482 128.37 141.314 126.718H142.546C142.672 127.726 143.274 128.146 144.38 128.146C145.556 128.146 146.102 127.698 146.102 127.012C146.102 126.438 145.724 126.116 144.968 125.962L143.512 125.654C142.112 125.36 141.51 124.716 141.51 123.694C141.51 122.434 142.42 121.608 144.198 121.608C145.836 121.608 146.956 122.322 147.138 123.876H145.864C145.724 123.036 145.178 122.63 144.156 122.63C143.246 122.63 142.7 122.938 142.7 123.582C142.7 124.044 142.966 124.366 143.82 124.548L145.22 124.856C146.718 125.192 147.334 125.85 147.334 126.9C147.334 128.314 146.228 129.182 144.324 129.182Z"
      fill="black"
    />
<path
      d="M36.882 202.032H38.114V212H36.63L31.422 203.908V212H30.19V202.032H31.632L36.882 210.166V202.032ZM46.7146 208.22V208.696H41.2966C41.3386 210.32 42.1786 211.118 43.4806 211.118C44.5446 211.118 45.1606 210.586 45.4826 209.676L46.6586 209.816C46.2106 211.314 45.0206 212.168 43.4386 212.168C41.2826 212.168 40.0086 210.586 40.0086 208.36C40.0086 206.148 41.2546 204.608 43.4106 204.608C45.4406 204.608 46.7146 205.966 46.7146 208.22ZM43.4246 205.658C42.2766 205.658 41.4366 206.358 41.3106 207.772H45.5106C45.3426 206.4 44.6006 205.658 43.4246 205.658ZM56.2706 204.776H57.6006L55.2486 212H53.9606L52.9386 207.688L52.5746 205.868L52.1826 207.688L51.0906 212H49.7746L47.4926 204.776H48.8926L50.0266 208.948L50.4606 210.67L50.8386 208.948L51.8746 204.776H53.2746L54.3106 208.948L54.6606 210.67L55.0806 208.948L56.2706 204.776ZM69.8925 212L68.8425 209.074H64.6145L63.5365 212H62.1505L66.0145 202.032H67.4845L71.3345 212H69.8925ZM65.0345 207.94H68.4365L67.0785 204.16L66.7565 203.124L66.4205 204.16L65.0345 207.94ZM76.358 204.622C78.192 204.622 79.466 206.036 79.466 208.22C79.466 210.46 78.262 212.154 76.302 212.154C75.378 212.154 74.622 211.734 74.16 211.118V214.856H72.872V204.776H73.992V205.938C74.412 205.14 75.294 204.622 76.358 204.622ZM76.176 211.048C77.422 211.048 78.178 209.9 78.178 208.22C78.178 206.568 77.422 205.728 76.176 205.728C74.972 205.728 74.09 206.596 74.09 208.304C74.09 210.012 74.972 211.048 76.176 211.048ZM84.7662 204.622C86.6002 204.622 87.8742 206.036 87.8742 208.22C87.8742 210.46 86.6702 212.154 84.7102 212.154C83.7862 212.154 83.0302 211.734 82.5682 211.118V214.856H81.2802V204.776H82.4002V205.938C82.8202 205.14 83.7022 204.622 84.7662 204.622ZM84.5842 211.048C85.8302 211.048 86.5862 209.9 86.5862 208.22C86.5862 206.568 85.8302 205.728 84.5842 205.728C83.3802 205.728 82.4982 206.596 82.4982 208.304C82.4982 210.012 83.3802 211.048 84.5842 211.048ZM89.6884 212V202.032H90.9764V212H89.6884ZM93.2157 203.418V202.032H94.5037V203.418H93.2157ZM93.2157 212V204.776H94.5037V212H93.2157ZM99.669 212.182C97.653 212.182 96.323 210.88 96.323 208.444C96.323 206.008 97.653 204.594 99.739 204.594C101.405 204.594 102.539 205.476 102.791 207.142H101.573C101.377 206.162 100.761 205.672 99.753 205.672C98.297 205.672 97.611 206.68 97.611 208.388C97.611 210.096 98.367 211.104 99.739 211.104C100.803 211.104 101.391 210.502 101.587 209.48H102.791C102.539 211.174 101.489 212.182 99.669 212.182ZM110.906 211.048H111.116V212H110.43C109.66 212 109.24 211.65 109.184 210.936C108.722 211.636 107.798 212.182 106.566 212.182C105.096 212.182 104.144 211.412 104.144 210.082C104.144 208.892 104.858 208.052 106.608 207.828L108.456 207.59C108.806 207.548 108.974 207.38 108.974 207.044V206.736C108.974 205.98 108.47 205.616 107.35 205.616C106.314 205.616 105.796 205.938 105.712 206.904H104.438C104.564 205.308 105.586 204.552 107.448 204.552C109.24 204.552 110.276 205.28 110.276 206.862V210.418C110.276 210.894 110.43 211.048 110.906 211.048ZM106.804 211.188C107.966 211.188 108.974 210.39 108.974 209.466V208.458L106.818 208.78C105.81 208.934 105.418 209.382 105.418 210.026C105.418 210.768 105.964 211.188 106.804 211.188ZM114.326 205.714V210.222C114.326 210.754 114.494 210.922 115.026 210.922H115.964V212H114.648C113.528 212 113.038 211.51 113.038 210.39V205.714L111.96 205.77V204.776L113.038 204.818V202.564H114.326V204.832L115.978 204.776V205.77L114.326 205.714ZM117.524 203.418V202.032H118.812V203.418H117.524ZM117.524 212V204.776H118.812V212H117.524ZM124.104 212.182C122.032 212.182 120.632 210.656 120.632 208.388C120.632 206.064 122.074 204.594 124.146 204.594C126.162 204.594 127.59 206.036 127.59 208.332C127.59 210.6 126.134 212.182 124.104 212.182ZM124.104 211.104C125.504 211.104 126.302 209.97 126.302 208.332C126.302 206.694 125.504 205.672 124.104 205.672C122.732 205.672 121.92 206.75 121.92 208.388C121.92 210.026 122.746 211.104 124.104 211.104ZM133.031 204.594C134.543 204.594 135.481 205.462 135.481 206.988V212H134.193V207.24C134.193 206.246 133.731 205.714 132.751 205.714C131.757 205.714 130.693 206.26 130.693 207.982V212H129.405V204.776H130.609V205.798C131.099 205.028 131.967 204.594 133.031 204.594ZM140.168 212.182C138.348 212.182 137.326 211.37 137.158 209.718H138.39C138.516 210.726 139.118 211.146 140.224 211.146C141.4 211.146 141.946 210.698 141.946 210.012C141.946 209.438 141.568 209.116 140.812 208.962L139.356 208.654C137.956 208.36 137.354 207.716 137.354 206.694C137.354 205.434 138.264 204.608 140.042 204.608C141.68 204.608 142.8 205.322 142.982 206.876H141.708C141.568 206.036 141.022 205.63 140 205.63C139.09 205.63 138.544 205.938 138.544 206.582C138.544 207.044 138.81 207.366 139.664 207.548L141.064 207.856C142.562 208.192 143.178 208.85 143.178 209.9C143.178 211.314 142.072 212.182 140.168 212.182Z"
      fill="black"
    />
<path
      d="M258.61 208.822L258.974 212H257.658L257.364 209.34C257.238 208.164 256.734 207.702 255.572 207.702H252.492V212H251.19V202.032H255.81C257.714 202.032 258.862 203.068 258.862 204.664C258.862 205.952 258.134 206.862 257.084 207.156C257.952 207.324 258.512 207.898 258.61 208.822ZM255.362 206.568C256.72 206.568 257.532 205.924 257.532 204.79C257.532 203.74 256.846 203.166 255.586 203.166H252.492V206.568H255.362ZM267.359 208.22V208.696H261.941C261.983 210.32 262.823 211.118 264.125 211.118C265.189 211.118 265.805 210.586 266.127 209.676L267.303 209.816C266.855 211.314 265.665 212.168 264.083 212.168C261.927 212.168 260.653 210.586 260.653 208.36C260.653 206.148 261.899 204.608 264.055 204.608C266.085 204.608 267.359 205.966 267.359 208.22ZM264.069 205.658C262.921 205.658 262.081 206.358 261.955 207.772H266.155C265.987 206.4 265.245 205.658 264.069 205.658ZM276.915 204.776H278.245L275.893 212H274.605L273.583 207.688L273.219 205.868L272.827 207.688L271.735 212H270.419L268.137 204.776H269.537L270.671 208.948L271.105 210.67L271.483 208.948L272.519 204.776H273.919L274.955 208.948L275.305 210.67L275.725 208.948L276.915 204.776ZM285.886 211.048H286.096V212H285.41C284.64 212 284.22 211.65 284.164 210.936C283.702 211.636 282.778 212.182 281.546 212.182C280.076 212.182 279.124 211.412 279.124 210.082C279.124 208.892 279.838 208.052 281.588 207.828L283.436 207.59C283.786 207.548 283.954 207.38 283.954 207.044V206.736C283.954 205.98 283.45 205.616 282.33 205.616C281.294 205.616 280.776 205.938 280.692 206.904H279.418C279.544 205.308 280.566 204.552 282.428 204.552C284.22 204.552 285.256 205.28 285.256 206.862V210.418C285.256 210.894 285.41 211.048 285.886 211.048ZM281.784 211.188C282.946 211.188 283.954 210.39 283.954 209.466V208.458L281.798 208.78C280.79 208.934 280.398 209.382 280.398 210.026C280.398 210.768 280.944 211.188 281.784 211.188ZM291.057 204.58C291.155 204.58 291.239 204.58 291.323 204.594V205.854C291.169 205.84 291.029 205.84 290.861 205.84C289.909 205.84 288.845 206.582 288.789 208.052V212H287.501V204.776H288.705V206.232C289.167 205.224 289.923 204.58 291.057 204.58ZM297.541 202.032H298.829V212H297.709V210.852C297.275 211.608 296.435 212.154 295.385 212.154C293.425 212.154 292.235 210.516 292.235 208.276C292.235 206.092 293.523 204.622 295.357 204.622C296.295 204.622 297.079 205.014 297.541 205.644V202.032ZM295.511 211.048C296.715 211.048 297.611 210.012 297.611 208.304C297.611 206.596 296.743 205.728 295.539 205.728C294.293 205.728 293.523 206.624 293.523 208.276C293.523 209.956 294.265 211.048 295.511 211.048ZM309.009 202.032C310.941 202.032 312.215 202.984 312.215 204.888C312.215 206.862 310.913 207.842 308.981 207.842H306.209V212H304.907V202.032H309.009ZM309.009 206.708C310.199 206.708 310.913 206.078 310.913 204.902C310.913 203.712 310.171 203.166 308.939 203.166H306.209V206.708H309.009ZM316.858 212.182C314.786 212.182 313.386 210.656 313.386 208.388C313.386 206.064 314.828 204.594 316.9 204.594C318.916 204.594 320.344 206.036 320.344 208.332C320.344 210.6 318.888 212.182 316.858 212.182ZM316.858 211.104C318.258 211.104 319.056 209.97 319.056 208.332C319.056 206.694 318.258 205.672 316.858 205.672C315.486 205.672 314.674 206.75 314.674 208.388C314.674 210.026 315.5 211.104 316.858 211.104ZM322.159 203.418V202.032H323.447V203.418H322.159ZM322.159 212V204.776H323.447V212H322.159ZM329.312 204.594C330.824 204.594 331.762 205.462 331.762 206.988V212H330.474V207.24C330.474 206.246 330.012 205.714 329.032 205.714C328.038 205.714 326.974 206.26 326.974 207.982V212H325.686V204.776H326.89V205.798C327.38 205.028 328.248 204.594 329.312 204.594ZM335.805 205.714V210.222C335.805 210.754 335.973 210.922 336.505 210.922H337.443V212H336.127C335.007 212 334.517 211.51 334.517 210.39V205.714L333.439 205.77V204.776L334.517 204.818V202.564H335.805V204.832L337.457 204.776V205.77L335.805 205.714ZM341.453 212.182C339.633 212.182 338.611 211.37 338.443 209.718H339.675C339.801 210.726 340.403 211.146 341.509 211.146C342.685 211.146 343.231 210.698 343.231 210.012C343.231 209.438 342.853 209.116 342.097 208.962L340.641 208.654C339.241 208.36 338.639 207.716 338.639 206.694C338.639 205.434 339.549 204.608 341.327 204.608C342.965 204.608 344.085 205.322 344.267 206.876H342.993C342.853 206.036 342.307 205.63 341.285 205.63C340.375 205.63 339.829 205.938 339.829 206.582C339.829 207.044 340.095 207.366 340.949 207.548L342.349 207.856C343.847 208.192 344.463 208.85 344.463 209.9C344.463 211.314 343.357 212.182 341.453 212.182ZM353.765 212.224C351.343 212.224 349.915 211.02 349.915 208.85V202.032H351.217V208.892C351.217 210.25 352.029 211.062 353.765 211.062C355.501 211.062 356.313 210.25 356.313 208.892V202.032H357.615V208.85C357.615 211.02 356.187 212.224 353.765 212.224ZM362.371 212.182C360.551 212.182 359.529 211.37 359.361 209.718H360.593C360.719 210.726 361.321 211.146 362.427 211.146C363.603 211.146 364.149 210.698 364.149 210.012C364.149 209.438 363.771 209.116 363.015 208.962L361.559 208.654C360.159 208.36 359.557 207.716 359.557 206.694C359.557 205.434 360.467 204.608 362.245 204.608C363.883 204.608 365.003 205.322 365.185 206.876H363.911C363.771 206.036 363.225 205.63 362.203 205.63C361.293 205.63 360.747 205.938 360.747 206.582C360.747 207.044 361.013 207.366 361.867 207.548L363.267 207.856C364.765 208.192 365.381 208.85 365.381 209.9C365.381 211.314 364.275 212.182 362.371 212.182ZM373.275 208.22V208.696H367.857C367.899 210.32 368.739 211.118 370.041 211.118C371.105 211.118 371.721 210.586 372.043 209.676L373.219 209.816C372.771 211.314 371.581 212.168 369.999 212.168C367.843 212.168 366.569 210.586 366.569 208.36C366.569 206.148 367.815 204.608 369.971 204.608C372.001 204.608 373.275 205.966 373.275 208.22ZM369.985 205.658C368.837 205.658 367.997 206.358 367.871 207.772H372.071C371.903 206.4 371.161 205.658 369.985 205.658ZM379.983 202.032H381.271V212H380.151V210.852C379.717 211.608 378.877 212.154 377.827 212.154C375.867 212.154 374.677 210.516 374.677 208.276C374.677 206.092 375.965 204.622 377.799 204.622C378.737 204.622 379.521 205.014 379.983 205.644V202.032ZM377.953 211.048C379.157 211.048 380.053 210.012 380.053 208.304C380.053 206.596 379.185 205.728 377.981 205.728C376.735 205.728 375.965 206.624 375.965 208.276C375.965 209.956 376.707 211.048 377.953 211.048Z"
      fill="black"
    />
<path
      d="M42.752 73.96C42.752 76.792 40.784 78.616 37.784 78.952V82.456H35.888V78.952C32.84 78.688 31.064 76.888 30.632 73.696H32.744C33.032 75.88 34.088 77.152 36.848 77.152C39.512 77.152 40.592 75.88 40.592 74.224C40.592 72.592 39.536 71.896 37.592 71.44L35.672 70.984C32.624 70.264 31.208 68.8 31.208 66.448C31.208 63.928 32.816 62.224 35.888 61.96V58.672H37.784V61.96C40.736 62.272 42.056 64.048 42.344 66.52H40.232C39.944 64.648 38.864 63.76 36.68 63.76C34.448 63.76 33.368 64.624 33.368 66.376C33.368 67.48 33.824 68.488 36.296 69.064L38.24 69.52C41.6 70.312 42.752 71.824 42.752 73.96ZM45.8396 79C46.0316 76.072 47.0156 74.008 49.7516 72.304L52.7276 70.456C54.3116 69.472 55.0556 68.44 55.0556 66.904C55.0556 64.888 53.7836 63.712 51.7676 63.712C49.6556 63.712 48.4076 64.984 48.4076 67.504V67.768H46.1756V67.408C46.1756 63.904 48.4316 61.72 51.8156 61.72C54.9596 61.72 57.2876 63.616 57.2876 66.808C57.2876 68.968 56.2316 70.672 54.0476 72.04L51.9116 73.384C49.4396 74.944 48.7196 75.688 48.5756 76.984H57.1916V79H45.8396ZM61.0471 82.432V81.232H61.2871C62.0311 81.232 62.4151 80.848 62.4151 80.104V78.88L61.0231 79V76.6H63.6631V79.84C63.6631 81.568 62.8711 82.432 61.2871 82.432H61.0471ZM73.1624 79.336C69.2984 79.336 66.8744 77.2 66.7304 73.576H68.9624C69.0824 76.096 70.5464 77.344 73.2104 77.344C75.9704 77.344 77.2664 76 77.2664 74.032C77.2664 72.16 76.1144 71.008 73.6664 71.008H71.8424V69.064H73.0664C75.2504 69.064 76.3064 68.104 76.3064 66.424C76.3064 64.6 75.1064 63.688 72.9464 63.688C70.7144 63.688 69.6824 64.648 69.5624 67.048H67.3304C67.4744 63.592 69.5624 61.696 73.0424 61.696C76.3784 61.696 78.5864 63.496 78.5864 66.232C78.5864 67.792 77.8904 69.064 76.0664 69.832V69.904C78.3464 70.36 79.5464 71.848 79.5464 74.032C79.5464 77.248 76.9784 79.336 73.1624 79.336ZM87.986 79.288C84.074 79.288 82.106 76.456 82.106 70.456C82.106 64.36 84.122 61.624 88.034 61.624C91.946 61.624 93.914 64.36 93.914 70.456C93.914 76.456 91.898 79.288 87.986 79.288ZM88.034 77.344C90.578 77.344 91.634 75.328 91.634 70.456C91.634 65.608 90.554 63.568 88.01 63.568C85.466 63.568 84.386 65.608 84.386 70.456C84.386 75.328 85.49 77.344 88.034 77.344ZM106.506 73.024H109.266V74.968H106.506V79H104.274V74.968H96.4976V72.88L104.802 61.912H106.506V73.024ZM104.274 73.024V65.848H104.226L98.7776 73.024H104.274ZM112.377 82.432V81.232H112.617C113.361 81.232 113.745 80.848 113.745 80.104V78.88L112.353 79V76.6H114.993V79.84C114.993 81.568 114.201 82.432 112.617 82.432H112.377ZM118.756 79C118.948 76.072 119.932 74.008 122.668 72.304L125.644 70.456C127.228 69.472 127.972 68.44 127.972 66.904C127.972 64.888 126.7 63.712 124.684 63.712C122.572 63.712 121.324 64.984 121.324 67.504V67.768H119.092V67.408C119.092 63.904 121.348 61.72 124.732 61.72C127.876 61.72 130.204 63.616 130.204 66.808C130.204 68.968 129.148 70.672 126.964 72.04L124.828 73.384C122.356 74.944 121.636 75.688 121.492 76.984H130.108V79H118.756ZM143.564 63.496C144.716 64.96 145.22 67.144 145.22 70.024C145.22 75.784 143.132 79.312 139.028 79.312C136.148 79.312 134.084 77.608 133.916 74.848H136.028C136.244 76.48 137.372 77.464 139.076 77.464C141.62 77.464 142.94 75.304 143.084 70.888C142.148 72.256 140.684 73 138.86 73C135.62 73 133.484 70.744 133.484 67.432C133.484 63.904 135.74 61.552 139.268 61.552C141.116 61.552 142.556 62.224 143.564 63.496ZM139.196 71.152C141.308 71.152 142.772 69.664 142.772 67.384C142.772 66.16 142.436 65.152 141.788 64.456C141.164 63.784 140.276 63.4 139.22 63.4C137.108 63.4 135.716 64.888 135.716 67.312C135.716 69.688 137.06 71.152 139.196 71.152ZM152.004 79V66.616H147.564V64.936H148.212C149.436 64.936 150.372 64.744 151.044 64.24C151.668 63.76 152.1 63.112 152.364 62.176L152.436 61.912H154.236V79H152.004ZM158.873 79V76.576H161.585V79H158.873ZM170.854 79.336C166.99 79.336 164.566 77.2 164.422 73.576H166.654C166.774 76.096 168.238 77.344 170.902 77.344C173.662 77.344 174.958 76 174.958 74.032C174.958 72.16 173.806 71.008 171.358 71.008H169.534V69.064H170.758C172.942 69.064 173.998 68.104 173.998 66.424C173.998 64.6 172.798 63.688 170.638 63.688C168.406 63.688 167.374 64.648 167.254 67.048H165.022C165.166 63.592 167.254 61.696 170.734 61.696C174.07 61.696 176.278 63.496 176.278 66.232C176.278 67.792 175.582 69.064 173.758 69.832V69.904C176.038 70.36 177.238 71.848 177.238 74.032C177.238 77.248 174.67 79.336 170.854 79.336ZM185.725 79.336C181.861 79.336 179.437 77.2 179.293 73.576H181.525C181.645 76.096 183.109 77.344 185.773 77.344C188.533 77.344 189.829 76 189.829 74.032C189.829 72.16 188.677 71.008 186.229 71.008H184.405V69.064H185.629C187.813 69.064 188.869 68.104 188.869 66.424C188.869 64.6 187.669 63.688 185.509 63.688C183.277 63.688 182.245 64.648 182.125 67.048H179.893C180.037 63.592 182.125 61.696 185.605 61.696C188.941 61.696 191.149 63.496 191.149 66.232C191.149 67.792 190.453 69.064 188.629 69.832V69.904C190.909 70.36 192.109 71.848 192.109 74.032C192.109 77.248 189.541 79.336 185.725 79.336Z"
      fill="black"
    />
<path
      d="M261.904 63.496C263.056 64.96 263.56 67.144 263.56 70.024C263.56 75.784 261.472 79.312 257.368 79.312C254.488 79.312 252.424 77.608 252.256 74.848H254.368C254.584 76.48 255.712 77.464 257.416 77.464C259.96 77.464 261.28 75.304 261.424 70.888C260.488 72.256 259.024 73 257.2 73C253.96 73 251.824 70.744 251.824 67.432C251.824 63.904 254.08 61.552 257.608 61.552C259.456 61.552 260.896 62.224 261.904 63.496ZM257.536 71.152C259.648 71.152 261.112 69.664 261.112 67.384C261.112 66.16 260.776 65.152 260.128 64.456C259.504 63.784 258.616 63.4 257.56 63.4C255.448 63.4 254.056 64.888 254.056 67.312C254.056 69.688 255.4 71.152 257.536 71.152ZM266.84 79C267.032 76.072 268.016 74.008 270.752 72.304L273.728 70.456C275.312 69.472 276.056 68.44 276.056 66.904C276.056 64.888 274.784 63.712 272.768 63.712C270.656 63.712 269.408 64.984 269.408 67.504V67.768H267.176V67.408C267.176 63.904 269.432 61.72 272.816 61.72C275.96 61.72 278.288 63.616 278.288 66.808C278.288 68.968 277.232 70.672 275.048 72.04L272.912 73.384C270.44 74.944 269.72 75.688 269.576 76.984H278.192V79H266.84ZM281.783 79V76.576H284.495V79H281.783ZM294.22 67.864C297.46 67.864 299.596 70.12 299.596 73.432C299.596 76.96 297.34 79.312 293.812 79.312C291.964 79.312 290.524 78.64 289.516 77.368C288.364 75.904 287.86 73.72 287.86 70.84C287.86 65.08 289.948 61.552 294.052 61.552C296.932 61.552 298.996 63.256 299.164 66.016H297.052C296.836 64.384 295.708 63.4 294.004 63.4C291.46 63.4 290.14 65.56 289.996 69.976C290.932 68.608 292.396 67.864 294.22 67.864ZM293.86 77.464C295.972 77.464 297.364 75.976 297.364 73.552C297.364 71.176 296.02 69.712 293.884 69.712C291.772 69.712 290.308 71.2 290.308 73.48C290.308 74.704 290.644 75.712 291.292 76.408C291.916 77.08 292.804 77.464 293.86 77.464ZM304.051 79C304.771 72.208 306.979 67.552 310.963 63.976H301.627V61.912H313.651V63.64C309.403 67.12 307.051 71.872 306.427 79H304.051ZM321.298 71.68C318.418 71.68 316.882 69.784 316.882 66.256C316.882 62.752 318.394 60.832 321.298 60.832C324.226 60.832 325.738 62.752 325.738 66.256C325.738 69.784 324.202 71.68 321.298 71.68ZM322.69 79.36L333.442 61.552H335.626L324.922 79.36H322.69ZM321.298 69.976C322.93 69.976 323.746 68.944 323.746 66.256C323.746 63.592 322.93 62.536 321.298 62.536C319.666 62.536 318.874 63.592 318.874 66.256C318.874 68.944 319.666 69.976 321.298 69.976ZM337.57 79.384C334.69 79.384 333.154 77.488 333.154 73.96C333.154 70.456 334.666 68.536 337.57 68.536C340.498 68.536 342.01 70.456 342.01 73.96C342.01 77.488 340.474 79.384 337.57 79.384ZM337.57 77.68C339.202 77.68 340.018 76.648 340.018 73.96C340.018 71.296 339.202 70.24 337.57 70.24C335.938 70.24 335.146 71.296 335.146 73.96C335.146 76.648 335.938 77.68 337.57 77.68Z"
      fill="black"
    />
<path
      d="M257.704 162.336C253.84 162.336 251.416 160.2 251.272 156.576H253.504C253.624 159.096 255.088 160.344 257.752 160.344C260.512 160.344 261.808 159 261.808 157.032C261.808 155.16 260.656 154.008 258.208 154.008H256.384V152.064H257.608C259.792 152.064 260.848 151.104 260.848 149.424C260.848 147.6 259.648 146.688 257.488 146.688C255.256 146.688 254.224 147.648 254.104 150.048H251.872C252.016 146.592 254.104 144.696 257.584 144.696C260.92 144.696 263.128 146.496 263.128 149.232C263.128 150.792 262.432 152.064 260.608 152.832V152.904C262.888 153.36 264.088 154.848 264.088 157.032C264.088 160.248 261.52 162.336 257.704 162.336ZM267.991 162C268.711 155.208 270.919 150.552 274.903 146.976H265.567V144.912H277.591V146.64C273.343 150.12 270.991 154.872 270.367 162H267.991ZM279.555 162C279.747 159.072 280.731 157.008 283.467 155.304L286.443 153.456C288.027 152.472 288.771 151.44 288.771 149.904C288.771 147.888 287.499 146.712 285.483 146.712C283.371 146.712 282.123 147.984 282.123 150.504V150.768H279.891V150.408C279.891 146.904 282.147 144.72 285.531 144.72C288.675 144.72 291.003 146.616 291.003 149.808C291.003 151.968 289.947 153.672 287.763 155.04L285.627 156.384C283.155 157.944 282.435 158.688 282.291 159.984H290.907V162H279.555ZM294.762 165.432V164.232H295.002C295.746 164.232 296.13 163.848 296.13 163.104V161.88L294.738 162V159.6H297.378V162.84C297.378 164.568 296.586 165.432 295.002 165.432H294.762ZM306.878 162.336C303.014 162.336 300.59 160.2 300.446 156.576H302.678C302.798 159.096 304.262 160.344 306.926 160.344C309.686 160.344 310.982 159 310.982 157.032C310.982 155.16 309.83 154.008 307.382 154.008H305.558V152.064H306.782C308.966 152.064 310.022 151.104 310.022 149.424C310.022 147.6 308.822 146.688 306.662 146.688C304.43 146.688 303.398 147.648 303.278 150.048H301.046C301.19 146.592 303.278 144.696 306.758 144.696C310.094 144.696 312.302 146.496 312.302 149.232C312.302 150.792 311.606 152.064 309.782 152.832V152.904C312.062 153.36 313.262 154.848 313.262 157.032C313.262 160.248 310.694 162.336 306.878 162.336ZM325.949 146.496C327.101 147.96 327.605 150.144 327.605 153.024C327.605 158.784 325.517 162.312 321.413 162.312C318.533 162.312 316.469 160.608 316.301 157.848H318.413C318.629 159.48 319.757 160.464 321.461 160.464C324.005 160.464 325.325 158.304 325.469 153.888C324.533 155.256 323.069 156 321.245 156C318.005 156 315.869 153.744 315.869 150.432C315.869 146.904 318.125 144.552 321.653 144.552C323.501 144.552 324.941 145.224 325.949 146.496ZM321.581 154.152C323.693 154.152 325.157 152.664 325.157 150.384C325.157 149.16 324.821 148.152 324.173 147.456C323.549 146.784 322.661 146.4 321.605 146.4C319.493 146.4 318.101 147.888 318.101 150.312C318.101 152.688 319.445 154.152 321.581 154.152ZM340.221 156.024H342.981V157.968H340.221V162H337.989V157.968H330.213V155.88L338.517 144.912H340.221V156.024ZM337.989 156.024V148.848H337.941L332.493 156.024H337.989Z"
      fill="black"
    />
<path
      d="M34.472 162V149.616H30.032V147.936H30.68C31.904 147.936 32.84 147.744 33.512 147.24C34.136 146.76 34.568 146.112 34.832 145.176L34.904 144.912H36.704V162H34.472ZM41.6053 165.432V164.232H41.8453C42.5893 164.232 42.9733 163.848 42.9733 163.104V161.88L41.5813 162V159.6H44.2213V162.84C44.2213 164.568 43.4293 165.432 41.8453 165.432H41.6053ZM53.7206 162.336C49.8566 162.336 47.4326 160.2 47.2886 156.576H49.5206C49.6406 159.096 51.1046 160.344 53.7686 160.344C56.5286 160.344 57.8246 159 57.8246 157.032C57.8246 155.16 56.6726 154.008 54.2246 154.008H52.4006V152.064H53.6246C55.8086 152.064 56.8646 151.104 56.8646 149.424C56.8646 147.6 55.6646 146.688 53.5046 146.688C51.2726 146.688 50.2406 147.648 50.1206 150.048H47.8886C48.0326 146.592 50.1206 144.696 53.6006 144.696C56.9366 144.696 59.1446 146.496 59.1446 149.232C59.1446 150.792 58.4486 152.064 56.6246 152.832V152.904C58.9046 153.36 60.1046 154.848 60.1046 157.032C60.1046 160.248 57.5366 162.336 53.7206 162.336ZM72.7921 146.496C73.9441 147.96 74.4481 150.144 74.4481 153.024C74.4481 158.784 72.3601 162.312 68.2561 162.312C65.3761 162.312 63.3121 160.608 63.1441 157.848H65.2561C65.4721 159.48 66.6001 160.464 68.3041 160.464C70.8481 160.464 72.1681 158.304 72.3121 153.888C71.3761 155.256 69.9121 156 68.0881 156C64.8481 156 62.7121 153.744 62.7121 150.432C62.7121 146.904 64.9681 144.552 68.4961 144.552C70.3441 144.552 71.7841 145.224 72.7921 146.496ZM68.4241 154.152C70.5361 154.152 72.0001 152.664 72.0001 150.384C72.0001 149.16 71.6641 148.152 71.0161 147.456C70.3921 146.784 69.5041 146.4 68.4481 146.4C66.3361 146.4 64.9441 147.888 64.9441 150.312C64.9441 152.688 66.2881 154.152 68.4241 154.152ZM87.0637 156.024H89.8237V157.968H87.0637V162H84.8317V157.968H77.0557V155.88L85.3597 144.912H87.0637V156.024ZM84.8317 156.024V148.848H84.7837L79.3357 156.024H84.8317ZM92.9352 165.432V164.232H93.1752C93.9192 164.232 94.3032 163.848 94.3032 163.104V161.88L92.9112 162V159.6H95.5512V162.84C95.5512 164.568 94.7592 165.432 93.1752 165.432H92.9352ZM99.3146 162C99.5066 159.072 100.491 157.008 103.227 155.304L106.203 153.456C107.787 152.472 108.531 151.44 108.531 149.904C108.531 147.888 107.259 146.712 105.243 146.712C103.131 146.712 101.883 147.984 101.883 150.504V150.768H99.6506V150.408C99.6506 146.904 101.907 144.72 105.291 144.72C108.435 144.72 110.763 146.616 110.763 149.808C110.763 151.968 109.707 153.672 107.523 155.04L105.387 156.384C102.915 157.944 102.195 158.688 102.051 159.984H110.667V162H99.3146ZM119.874 162.288C115.962 162.288 113.994 159.456 113.994 153.456C113.994 147.36 116.01 144.624 119.922 144.624C123.834 144.624 125.802 147.36 125.802 153.456C125.802 159.456 123.786 162.288 119.874 162.288ZM119.922 160.344C122.466 160.344 123.522 158.328 123.522 153.456C123.522 148.608 122.442 146.568 119.898 146.568C117.354 146.568 116.274 148.608 116.274 153.456C116.274 158.328 117.378 160.344 119.922 160.344ZM134.626 162.384C131.362 162.384 129.274 160.536 128.914 157.464H131.074C131.386 159.6 132.85 160.536 134.698 160.536C137.026 160.536 138.322 159.024 138.322 156.528C138.322 154.008 136.954 152.544 134.722 152.544C133.354 152.544 132.322 153.072 131.578 154.032H129.346L131.05 144.912H139.69V146.928H132.61L131.698 151.8L131.746 151.848C132.658 151.2 133.642 150.696 135.178 150.696C138.658 150.696 140.602 153.288 140.602 156.48C140.602 159.792 138.514 162.384 134.626 162.384Z"
      fill="black"
    />
<path
      d="M34.472 245V232.616H30.032V230.936H30.68C31.904 230.936 32.84 230.744 33.512 230.24C34.136 229.76 34.568 229.112 34.832 228.176L34.904 227.912H36.704V245H34.472ZM41.6053 248.432V247.232H41.8453C42.5893 247.232 42.9733 246.848 42.9733 246.104V244.88L41.5813 245V242.6H44.2213V245.84C44.2213 247.568 43.4293 248.432 41.8453 248.432H41.6053ZM57.9206 229.496C59.0726 230.96 59.5766 233.144 59.5766 236.024C59.5766 241.784 57.4886 245.312 53.3846 245.312C50.5046 245.312 48.4406 243.608 48.2726 240.848H50.3846C50.6006 242.48 51.7286 243.464 53.4326 243.464C55.9766 243.464 57.2966 241.304 57.4406 236.888C56.5046 238.256 55.0406 239 53.2166 239C49.9766 239 47.8406 236.744 47.8406 233.432C47.8406 229.904 50.0966 227.552 53.6246 227.552C55.4726 227.552 56.9126 228.224 57.9206 229.496ZM53.5526 237.152C55.6646 237.152 57.1286 235.664 57.1286 233.384C57.1286 232.16 56.7926 231.152 56.1446 230.456C55.5206 229.784 54.6326 229.4 53.5766 229.4C51.4646 229.4 50.0726 230.888 50.0726 233.312C50.0726 235.688 51.4166 237.152 53.5526 237.152ZM72.1921 239.024H74.9521V240.968H72.1921V245H69.9601V240.968H62.1841V238.88L70.4881 227.912H72.1921V239.024ZM69.9601 239.024V231.848H69.9121L64.4641 239.024H69.9601ZM78.8788 245C79.5988 238.208 81.8068 233.552 85.7908 229.976H76.4548V227.912H88.4788V229.64C84.2308 233.12 81.8788 237.872 81.2548 245H78.8788Z"
      fill="black"
    />
<path
      d="M255.472 245V232.616H251.032V230.936H251.68C252.904 230.936 253.84 230.744 254.512 230.24C255.136 229.76 255.568 229.112 255.832 228.176L255.904 227.912H257.704V245H255.472ZM267.837 245.384C264.573 245.384 262.485 243.536 262.125 240.464H264.285C264.597 242.6 266.061 243.536 267.909 243.536C270.237 243.536 271.533 242.024 271.533 239.528C271.533 237.008 270.165 235.544 267.933 235.544C266.565 235.544 265.533 236.072 264.789 237.032H262.557L264.261 227.912H272.901V229.928H265.821L264.909 234.8L264.957 234.848C265.869 234.2 266.853 233.696 268.389 233.696C271.869 233.696 273.813 236.288 273.813 239.48C273.813 242.792 271.725 245.384 267.837 245.384ZM282.877 245.336C279.013 245.336 276.589 243.2 276.445 239.576H278.677C278.797 242.096 280.261 243.344 282.925 243.344C285.685 243.344 286.981 242 286.981 240.032C286.981 238.16 285.829 237.008 283.381 237.008H281.557V235.064H282.781C284.965 235.064 286.021 234.104 286.021 232.424C286.021 230.6 284.821 229.688 282.661 229.688C280.429 229.688 279.397 230.648 279.277 233.048H277.045C277.189 229.592 279.277 227.696 282.757 227.696C286.093 227.696 288.301 229.496 288.301 232.232C288.301 233.792 287.605 235.064 285.781 235.832V235.904C288.061 236.36 289.261 237.848 289.261 240.032C289.261 243.248 286.693 245.336 282.877 245.336ZM292.348 248.432V247.232H292.588C293.332 247.232 293.716 246.848 293.716 246.104V244.88L292.324 245V242.6H294.964V245.84C294.964 247.568 294.172 248.432 292.588 248.432H292.348ZM308.664 229.496C309.816 230.96 310.32 233.144 310.32 236.024C310.32 241.784 308.232 245.312 304.128 245.312C301.248 245.312 299.184 243.608 299.016 240.848H301.128C301.344 242.48 302.472 243.464 304.176 243.464C306.72 243.464 308.04 241.304 308.184 236.888C307.248 238.256 305.784 239 303.96 239C300.72 239 298.584 236.744 298.584 233.432C298.584 229.904 300.84 227.552 304.368 227.552C306.216 227.552 307.656 228.224 308.664 229.496ZM304.296 237.152C306.408 237.152 307.872 235.664 307.872 233.384C307.872 232.16 307.536 231.152 306.888 230.456C306.264 229.784 305.376 229.4 304.32 229.4C302.208 229.4 300.816 230.888 300.816 233.312C300.816 235.688 302.16 237.152 304.296 237.152ZM319.335 245.336C315.471 245.336 313.047 243.2 312.903 239.576H315.135C315.255 242.096 316.719 243.344 319.383 243.344C322.143 243.344 323.439 242 323.439 240.032C323.439 238.16 322.287 237.008 319.839 237.008H318.015V235.064H319.239C321.423 235.064 322.479 234.104 322.479 232.424C322.479 230.6 321.279 229.688 319.119 229.688C316.887 229.688 315.855 230.648 315.735 233.048H313.503C313.647 229.592 315.735 227.696 319.215 227.696C322.551 227.696 324.759 229.496 324.759 232.232C324.759 233.792 324.063 235.064 322.239 235.832V235.904C324.519 236.36 325.719 237.848 325.719 240.032C325.719 243.248 323.151 245.336 319.335 245.336ZM334.159 245.288C330.247 245.288 328.279 242.456 328.279 236.456C328.279 230.36 330.295 227.624 334.207 227.624C338.119 227.624 340.087 230.36 340.087 236.456C340.087 242.456 338.071 245.288 334.159 245.288ZM334.207 243.344C336.751 243.344 337.807 241.328 337.807 236.456C337.807 231.608 336.727 229.568 334.183 229.568C331.639 229.568 330.559 231.608 330.559 236.456C330.559 241.328 331.663 243.344 334.207 243.344Z"
      fill="black"
    />
<rect x="194" width="166" height="282" fill="url(#paint0_linear_1869_182)" />
<rect
      x="360"
      y="116"
      width="166"
      height="360"
      transform="rotate(90 360 116)"
      fill="url(#paint1_linear_1869_182)"
    />
</g>
<defs>
<linearGradient
      id="paint0_linear_1869_182"
      x1="194"
      y1="147"
      x2="360"
      y2="147"
      gradientUnits="userSpaceOnUse"
    >
<stop stop-color="white" stop-opacity="0" />
<stop offset="1" stop-color="white" />
</linearGradient>
<linearGradient
      id="paint1_linear_1869_182"
      x1="360"
      y1="303.66"
      x2="526"
      y2="303.66"
      gradientUnits="userSpaceOnUse"
    >
<stop stop-color="white" stop-opacity="0" />
<stop offset="1" stop-color="white" />
</linearGradient>
<clipPath id="clip0_1869_182">
<rect width="360" height="282" fill="white" />
</clipPath>
</defs>
</svg>
