<svg
  width="48"
  height="48"
  viewBox="0 0 48 48"
  fill="none"
  xmlns="http://www.w3.org/2000/svg"
>
<g clip-path="url(#clip0_1191_321)">
<path d="M0 0H48V48H0V0Z" fill="black" />
<path
      fill-rule="evenodd"
      clip-rule="evenodd"
      d="M18.1168 33C22.9704 33 27 28.9704 27 24.1168C27 19.0296 22.9704 15 18.1168 15C13.0296 15 9 19.0296 9 24.1168C9 28.9704 13.0296 33 18.1168 33Z"
      fill="#E7001A"
    />
<path
      fill-rule="evenodd"
      clip-rule="evenodd"
      d="M30.1168 33C34.9704 33 39 28.9704 39 24.1168C39 19.0296 34.9704 15 30.1168 15C25.0296 15 21 19.0296 21 24.1168C21 28.9704 25.0296 33 30.1168 33Z"
      fill="#F49B1C"
    />
<path
      opacity="0.3"
      fill-rule="evenodd"
      clip-rule="evenodd"
      d="M24.018 17.3032C22.1588 18.964 21 21.388 21 24.1168C21 26.7196 22.1588 29.0852 24.018 30.7196C25.8412 29.0852 27 26.7196 27 24.1168C27 21.3888 25.8412 18.9648 24.018 17.3032Z"
      fill="#E7001A"
    />
</g>
<defs>
<clipPath id="clip0_1191_321">
<rect width="48" height="48" rx="10" fill="white" />
</clipPath>
</defs>
</svg>
